<svg width="20" height="20" viewBox="0 0 20 20" fill="none" xmlns="http://www.w3.org/2000/svg">
<path fill-rule="evenodd" clip-rule="evenodd" d="M3.93237 13.9402C3.46936 14.528 3.51793 15.3921 4.07167 15.9458C4.668 16.5421 5.62437 16.5525 6.20779 15.969L9.98491 12.1795L10.0049 12.1594L10.0168 12.1713L13.8097 15.9516L13.9402 16.0675C14.528 16.5305 15.3921 16.482 15.9458 15.9282C16.5421 15.3319 16.5525 14.3755 15.969 13.7921L12.1795 10.015L12.1603 9.99595L15.9515 6.19029L16.0603 6.06885C16.531 5.48095 16.4849 4.61074 15.9283 4.05416L15.7953 3.93535C15.1973 3.45937 14.334 3.48904 13.7922 4.03078L9.99685 7.84047L6.19029 4.04838L6.06885 3.9396C5.48095 3.4689 4.61074 3.51505 4.05416 4.07158L3.93535 4.2046C3.45937 4.80259 3.48904 5.66592 4.03078 6.20771L7.84137 10.004L7.8286 10.0168L4.0483 13.8097L3.93237 13.9402Z" fill="white" fill-opacity="0.8"/>
</svg>
